<svg xmlns="http://www.w3.org/2000/svg" width="479.595" height="165.024" viewBox="0 0 479.595 165.024">
  <g id="LogoColor" transform="translate(-1978.548 21.333)">
    <text id="NADIR_CHABNI_" data-name="NADIR    CHABNI " transform="translate(2195.144 43.382)" fill="#fff" font-size="67" font-family="TimesNewRomanPSMT, Times New Roman"><tspan x="0" y="0" xml:space="preserve">NADIR   </tspan><tspan x="0" y="80">CHABNI</tspan></text>
    <g id="Group_1" data-name="Group 1" transform="translate(1978.548 -21.333)">
      <g id="Exclusion_2" data-name="Exclusion 2" transform="translate(48.184 0)">
        <path id="Path_1" data-name="Path 1" d="M51.613,82.512a39.962,39.962,0,0,1-5.62-.4A41.117,41.117,0,0,0,80.712,41.256,41.117,41.117,0,0,0,45.988.4,39.98,39.98,0,0,1,51.613,0,39.332,39.332,0,0,1,67.319,3.242a40.078,40.078,0,0,1,6.853,3.8,40.848,40.848,0,0,1,5.971,5.038A41.386,41.386,0,0,1,88.791,25.2a41.911,41.911,0,0,1-3.72,39.134,41.365,41.365,0,0,1-4.927,6.106,40.848,40.848,0,0,1-5.971,5.038,40.078,40.078,0,0,1-6.853,3.8,39.332,39.332,0,0,1-15.706,3.232Zm-11.248,0A39.332,39.332,0,0,1,24.66,79.27a40.077,40.077,0,0,1-6.853-3.8,40.848,40.848,0,0,1-5.971-5.038A41.386,41.386,0,0,1,3.188,57.315a41.911,41.911,0,0,1,3.72-39.134,41.367,41.367,0,0,1,4.927-6.106,40.848,40.848,0,0,1,5.972-5.029,40.077,40.077,0,0,1,6.853-3.8A39.332,39.332,0,0,1,40.363,0a39.961,39.961,0,0,1,5.62.4A41.117,41.117,0,0,0,11.265,41.256,41.117,41.117,0,0,0,45.988,82.113a39.982,39.982,0,0,1-5.625.4Z" transform="translate(0.013 0)" fill="none"/>
        <path id="Path_2" data-name="Path 2" d="M51.595,82.512a39.988,39.988,0,0,1-5.624-.4c19.8-2.822,34.722-20.387,34.722-40.858S65.766,3.22,45.971.4A39.979,39.979,0,0,1,51.595,0,39.333,39.333,0,0,1,67.3,3.242a40.083,40.083,0,0,1,6.853,3.8,40.858,40.858,0,0,1,5.971,5.038A41.391,41.391,0,0,1,88.771,25.2a41.91,41.91,0,0,1-3.72,39.125,41.375,41.375,0,0,1-4.927,6.106,40.853,40.853,0,0,1-5.971,5.038,40.084,40.084,0,0,1-6.853,3.8A39.335,39.335,0,0,1,51.595,82.512Zm-11.248,0a39.335,39.335,0,0,1-15.7-3.242,40.089,40.089,0,0,1-6.853-3.8,40.848,40.848,0,0,1-5.971-5.038A41.384,41.384,0,0,1,3.171,57.315a41.912,41.912,0,0,1,3.72-39.125,41.369,41.369,0,0,1,4.927-6.106,40.848,40.848,0,0,1,5.971-5.038,40.081,40.081,0,0,1,6.853-3.8A39.333,39.333,0,0,1,40.347,0a39.978,39.978,0,0,1,5.624.4C26.176,3.22,11.248,20.785,11.248,41.256S26.176,79.292,45.971,82.114A39.966,39.966,0,0,1,40.347,82.512Z" transform="translate(0.03 0)" fill="#fff"/>
      </g>
      <g id="Exclusion_3" data-name="Exclusion 3" transform="translate(48.184 82.512)">
        <path id="Path_3" data-name="Path 3" d="M51.613,82.512a39.962,39.962,0,0,1-5.62-.4A41.117,41.117,0,0,0,80.712,41.256,41.117,41.117,0,0,0,45.988.4,39.98,39.98,0,0,1,51.613,0,39.332,39.332,0,0,1,67.319,3.242a40.078,40.078,0,0,1,6.853,3.8,40.848,40.848,0,0,1,5.971,5.038A41.386,41.386,0,0,1,88.791,25.2a41.911,41.911,0,0,1-3.72,39.134,41.365,41.365,0,0,1-4.927,6.106,40.848,40.848,0,0,1-5.971,5.038,40.078,40.078,0,0,1-6.853,3.8,39.332,39.332,0,0,1-15.706,3.232Zm-11.248,0A39.332,39.332,0,0,1,24.66,79.27a40.077,40.077,0,0,1-6.853-3.8,40.848,40.848,0,0,1-5.971-5.038A41.386,41.386,0,0,1,3.188,57.315a41.911,41.911,0,0,1,3.72-39.134,41.367,41.367,0,0,1,4.927-6.106,40.848,40.848,0,0,1,5.972-5.029,40.077,40.077,0,0,1,6.853-3.8A39.332,39.332,0,0,1,40.363,0a39.961,39.961,0,0,1,5.62.4A41.117,41.117,0,0,0,11.265,41.256,41.117,41.117,0,0,0,45.988,82.113a39.982,39.982,0,0,1-5.625.4Z" transform="translate(0.013 0)" fill="none"/>
        <path id="Path_4" data-name="Path 4" d="M51.595,82.512a39.988,39.988,0,0,1-5.624-.4c19.8-2.822,34.722-20.387,34.722-40.858S65.766,3.22,45.971.4A39.979,39.979,0,0,1,51.595,0,39.333,39.333,0,0,1,67.3,3.242a40.083,40.083,0,0,1,6.853,3.8,40.858,40.858,0,0,1,5.971,5.038A41.391,41.391,0,0,1,88.771,25.2a41.91,41.91,0,0,1-3.72,39.125,41.375,41.375,0,0,1-4.927,6.106,40.853,40.853,0,0,1-5.971,5.038,40.084,40.084,0,0,1-6.853,3.8A39.335,39.335,0,0,1,51.595,82.512Zm-11.248,0a39.335,39.335,0,0,1-15.7-3.242,40.089,40.089,0,0,1-6.853-3.8,40.848,40.848,0,0,1-5.971-5.038A41.384,41.384,0,0,1,3.171,57.315a41.912,41.912,0,0,1,3.72-39.125,41.369,41.369,0,0,1,4.927-6.106,40.848,40.848,0,0,1,5.971-5.038,40.081,40.081,0,0,1,6.853-3.8A39.333,39.333,0,0,1,40.347,0a39.978,39.978,0,0,1,5.624.4C26.176,3.22,11.248,20.785,11.248,41.256S26.176,79.292,45.971,82.114A39.966,39.966,0,0,1,40.347,82.512Z" transform="translate(0.03 0)" fill="#fff"/>
      </g>
      <g id="Exclusion_4" data-name="Exclusion 4" transform="translate(188.629 83.35) rotate(120)">
        <path id="Path_5" data-name="Path 5" d="M52.533,82.137a41.587,41.587,0,0,1-5.722-.4,41.074,41.074,0,0,0,0-81.333A41.6,41.6,0,0,1,52.533,0,41.075,41.075,0,0,1,68.519,78.907,40.81,40.81,0,0,1,52.533,82.137Zm-11.448,0A41.075,41.075,0,0,1,25.1,3.227,40.81,40.81,0,0,1,41.083,0,41.585,41.585,0,0,1,46.8.4a41.074,41.074,0,0,0,0,81.333,41.6,41.6,0,0,1-5.723.408Z" transform="translate(0 0)" fill="none"/>
        <path id="Path_6" data-name="Path 6" d="M52.517,82.136a41.562,41.562,0,0,1-5.724-.4A41.074,41.074,0,0,0,46.793.4,41.6,41.6,0,0,1,52.517,0,40.876,40.876,0,0,1,75.479,7.014,41.186,41.186,0,0,1,90.358,25.083,41.015,41.015,0,0,1,86.572,64.03,41.188,41.188,0,0,1,68.5,78.909,40.81,40.81,0,0,1,52.517,82.136Zm-11.449,0a40.876,40.876,0,0,1-22.962-7.014A41.188,41.188,0,0,1,3.227,57.054,41.013,41.013,0,0,1,7.014,18.107,41.188,41.188,0,0,1,25.083,3.227,40.811,40.811,0,0,1,41.068,0a41.6,41.6,0,0,1,5.724.4,41.074,41.074,0,0,0,0,81.344A41.577,41.577,0,0,1,41.068,82.136Z" transform="translate(0.015 0)" fill="#fff"/>
      </g>
      <g id="Exclusion_5" data-name="Exclusion 5" transform="translate(117.942 43.027) rotate(120)">
        <path id="Path_7" data-name="Path 7" d="M52.533,82.137a41.587,41.587,0,0,1-5.722-.4,41.074,41.074,0,0,0,0-81.333A41.6,41.6,0,0,1,52.533,0,41.075,41.075,0,0,1,68.519,78.907,40.81,40.81,0,0,1,52.533,82.137Zm-11.448,0A41.075,41.075,0,0,1,25.1,3.227,40.81,40.81,0,0,1,41.083,0,41.585,41.585,0,0,1,46.8.4a41.074,41.074,0,0,0,0,81.333,41.6,41.6,0,0,1-5.723.408Z" transform="translate(0 0)" fill="none"/>
        <path id="Path_8" data-name="Path 8" d="M52.517,82.136a41.562,41.562,0,0,1-5.724-.4A41.074,41.074,0,0,0,46.793.4,41.6,41.6,0,0,1,52.517,0,40.876,40.876,0,0,1,75.479,7.014,41.186,41.186,0,0,1,90.358,25.083,41.015,41.015,0,0,1,86.572,64.03,41.188,41.188,0,0,1,68.5,78.909,40.81,40.81,0,0,1,52.517,82.136Zm-11.449,0a40.876,40.876,0,0,1-22.962-7.014A41.188,41.188,0,0,1,3.227,57.054,41.013,41.013,0,0,1,7.014,18.107,41.188,41.188,0,0,1,25.083,3.227,40.811,40.811,0,0,1,41.068,0a41.6,41.6,0,0,1,5.724.4,41.074,41.074,0,0,0,0,81.344A41.577,41.577,0,0,1,41.068,82.136Z" transform="translate(0.015 0)" fill="#fff"/>
      </g>
    </g>
  </g>
</svg>
