<svg xmlns="http://www.w3.org/2000/svg" width="210.447" height="70" viewBox="0 0 210.447 70">
  <g id="LogoColor" transform="translate(-1978.553 21.333)">
    <text id="NADIR_CHABNI_" data-name="NADIR   
CHABNI " transform="translate(2070 6.667)" fill="#033371" font-size="29" font-family="TimesNewRomanPSMT, Times New Roman"><tspan x="0" y="0" xml:space="preserve">NADIR   </tspan><tspan x="0" y="35">CHABNI </tspan></text>
    <g id="Group_1" data-name="Group 1" transform="translate(1978.553 -20.726)">
      <g id="Exclusion_2" data-name="Exclusion 2" transform="translate(20.447 -0.607)" fill="none">
        <path d="M21.886,35a16.959,16.959,0,0,1-2.386-.169A17.441,17.441,0,0,0,34.229,17.5,17.441,17.441,0,0,0,19.5.169,16.959,16.959,0,0,1,21.886,0a16.684,16.684,0,0,1,6.662,1.375,17,17,0,0,1,2.907,1.614,17.327,17.327,0,0,1,2.533,2.137,17.555,17.555,0,0,1,3.668,5.563,17.778,17.778,0,0,1-1.578,16.6,17.547,17.547,0,0,1-2.09,2.59,17.327,17.327,0,0,1-2.533,2.137,17,17,0,0,1-2.907,1.613A16.684,16.684,0,0,1,21.886,35Zm-4.771,0a16.684,16.684,0,0,1-6.662-1.375,17,17,0,0,1-2.907-1.613,17.327,17.327,0,0,1-2.533-2.137,17.555,17.555,0,0,1-3.668-5.563,17.778,17.778,0,0,1,1.578-16.6,17.547,17.547,0,0,1,2.09-2.59A17.327,17.327,0,0,1,7.546,2.989a17,17,0,0,1,2.907-1.614A16.684,16.684,0,0,1,17.114,0,16.958,16.958,0,0,1,19.5.169,17.441,17.441,0,0,0,4.771,17.5,17.441,17.441,0,0,0,19.5,34.831,16.959,16.959,0,0,1,17.114,35Z" stroke="none"/>
        <path d="M 21.88558959960938 35 C 21.08760070800781 35 20.28496932983398 34.9432487487793 19.5 34.83132934570313 C 27.89669990539551 33.63412857055664 34.2286491394043 26.18350028991699 34.2286491394043 17.50008964538574 C 34.2286491394043 8.816780090332031 27.89669990539551 1.365890026092529 19.5 0.1686699986457825 C 20.28594017028809 0.05660999938845634 21.08856964111328 0 21.88558959960938 0 C 24.19601058959961 0 26.43732070922852 0.4627000093460083 28.54726982116699 1.375249981880188 C 29.56135940551758 1.81384003162384 30.53944969177246 2.356709957122803 31.45438957214355 2.988759994506836 C 32.36064147949219 3.614799976348877 33.21282958984375 4.333769798278809 33.98728942871094 5.125679969787598 C 34.76174926757813 5.917590141296387 35.46487045288086 6.788980007171631 36.07711029052734 7.715650081634521 C 36.69522857666016 8.651209831237793 37.22613143920898 9.651339530944824 37.65505981445313 10.68828964233398 C 38.54750061035156 12.84578990936279 39 15.13761043548584 39 17.50008964538574 C 39 19.86257934570313 38.54750061035156 22.15439033508301 37.65505981445313 24.31187057495117 C 37.22613143920898 25.34881019592285 36.69522857666016 26.34893989562988 36.07711029052734 27.28447914123535 C 35.46488189697266 28.21113014221191 34.76174926757813 29.08250999450684 33.98728942871094 29.87442016601563 C 33.21281051635742 30.66633033752441 32.36061859130859 31.38528060913086 31.45438957214355 32.01129913330078 C 30.53947067260742 32.64334106445313 29.56137084960938 33.18619155883789 28.54726982116699 33.62477874755859 C 26.43732070922852 34.53731155395508 24.19601058959961 35 21.88558959960938 35 Z M 17.11441040039063 35 C 14.80399036407471 35 12.5626802444458 34.53731155395508 10.45273971557617 33.62477874755859 C 9.438630104064941 33.18619155883789 8.460530281066895 32.64334106445313 7.545599937438965 32.01129913330078 C 6.639379978179932 31.38528060913086 5.787189960479736 30.66633033752441 5.012710094451904 29.87442016601563 C 4.238249778747559 29.08250999450684 3.535130023956299 28.21113014221191 2.922889947891235 27.28447914123535 C 2.304769992828369 26.34893989562988 1.77386999130249 25.34881019592285 1.344939947128296 24.31187057495117 C 0.4524999856948853 22.15439033508301 0 19.86257934570313 0 17.50008964538574 C 0 15.13761043548584 0.4524999856948853 12.84578990936279 1.344939947128296 10.68828964233398 C 1.77386999130249 9.651339530944824 2.304769992828369 8.651209831237793 2.922889947891235 7.715650081634521 C 3.535140037536621 6.788980007171631 4.238259792327881 5.917590141296387 5.012710094451904 5.125679969787598 C 5.787169933319092 4.333769798278809 6.639359951019287 3.614799976348877 7.545599937438965 2.988759994506836 C 8.460539817810059 2.356709957122803 9.438639640808105 1.81384003162384 10.45273971557617 1.375249981880188 C 12.5626802444458 0.4627000093460083 14.80399990081787 0 17.11441040039063 0 C 17.91242980957031 0 18.71505928039551 0.05674999952316284 19.5 0.1686699986457825 C 11.10330009460449 1.365890026092529 4.771359920501709 8.81659984588623 4.771359920501709 17.50008964538574 C 4.771359920501709 26.18331909179688 11.10330009460449 33.63414001464844 19.5 34.83132934570313 C 18.71401977539063 34.94338989257813 17.91139984130859 35 17.11441040039063 35 Z" stroke="none" fill="#033371"/>
      </g>
      <g id="Exclusion_3" data-name="Exclusion 3" transform="translate(20.447 34.393)" fill="none">
        <path d="M21.886,35a16.959,16.959,0,0,1-2.386-.169A17.441,17.441,0,0,0,34.229,17.5,17.441,17.441,0,0,0,19.5.169,16.959,16.959,0,0,1,21.886,0a16.684,16.684,0,0,1,6.662,1.375,17,17,0,0,1,2.907,1.614,17.327,17.327,0,0,1,2.533,2.137,17.555,17.555,0,0,1,3.668,5.563,17.778,17.778,0,0,1-1.578,16.6,17.547,17.547,0,0,1-2.09,2.59,17.327,17.327,0,0,1-2.533,2.137,17,17,0,0,1-2.907,1.613A16.684,16.684,0,0,1,21.886,35Zm-4.771,0a16.684,16.684,0,0,1-6.662-1.375,17,17,0,0,1-2.907-1.613,17.327,17.327,0,0,1-2.533-2.137,17.555,17.555,0,0,1-3.668-5.563,17.778,17.778,0,0,1,1.578-16.6,17.547,17.547,0,0,1,2.09-2.59A17.327,17.327,0,0,1,7.546,2.989a17,17,0,0,1,2.907-1.614A16.684,16.684,0,0,1,17.114,0,16.958,16.958,0,0,1,19.5.169,17.441,17.441,0,0,0,4.771,17.5,17.441,17.441,0,0,0,19.5,34.831,16.959,16.959,0,0,1,17.114,35Z" stroke="none"/>
        <path d="M 21.88558959960938 35 C 21.08760070800781 35 20.28496932983398 34.9432487487793 19.5 34.83132934570313 C 27.89669990539551 33.63412857055664 34.2286491394043 26.18350028991699 34.2286491394043 17.50008964538574 C 34.2286491394043 8.816780090332031 27.89669990539551 1.365890026092529 19.5 0.1686699986457825 C 20.28594017028809 0.05660999938845634 21.08856964111328 0 21.88558959960938 0 C 24.19601058959961 0 26.43732070922852 0.4627000093460083 28.54726982116699 1.375249981880188 C 29.56135940551758 1.81384003162384 30.53944969177246 2.356709957122803 31.45438957214355 2.988759994506836 C 32.36064147949219 3.614799976348877 33.21282958984375 4.333769798278809 33.98728942871094 5.125679969787598 C 34.76174926757813 5.917590141296387 35.46487045288086 6.788980007171631 36.07711029052734 7.715650081634521 C 36.69522857666016 8.651209831237793 37.22613143920898 9.651339530944824 37.65505981445313 10.68828964233398 C 38.54750061035156 12.84578990936279 39 15.13761043548584 39 17.50008964538574 C 39 19.86257934570313 38.54750061035156 22.15439033508301 37.65505981445313 24.31187057495117 C 37.22613143920898 25.34881019592285 36.69522857666016 26.34893989562988 36.07711029052734 27.28447914123535 C 35.46488189697266 28.21113014221191 34.76174926757813 29.08250999450684 33.98728942871094 29.87442016601563 C 33.21281051635742 30.66633033752441 32.36061859130859 31.38528060913086 31.45438957214355 32.01129913330078 C 30.53947067260742 32.64334106445313 29.56137084960938 33.18619155883789 28.54726982116699 33.62477874755859 C 26.43732070922852 34.53731155395508 24.19601058959961 35 21.88558959960938 35 Z M 17.11441040039063 35 C 14.80399036407471 35 12.5626802444458 34.53731155395508 10.45273971557617 33.62477874755859 C 9.438630104064941 33.18619155883789 8.460530281066895 32.64334106445313 7.545599937438965 32.01129913330078 C 6.639379978179932 31.38528060913086 5.787189960479736 30.66633033752441 5.012710094451904 29.87442016601563 C 4.238249778747559 29.08250999450684 3.535130023956299 28.21113014221191 2.922889947891235 27.28447914123535 C 2.304769992828369 26.34893989562988 1.77386999130249 25.34881019592285 1.344939947128296 24.31187057495117 C 0.4524999856948853 22.15439033508301 0 19.86257934570313 0 17.50008964538574 C 0 15.13761043548584 0.4524999856948853 12.84578990936279 1.344939947128296 10.68828964233398 C 1.77386999130249 9.651339530944824 2.304769992828369 8.651209831237793 2.922889947891235 7.715650081634521 C 3.535140037536621 6.788980007171631 4.238259792327881 5.917590141296387 5.012710094451904 5.125679969787598 C 5.787169933319092 4.333769798278809 6.639359951019287 3.614799976348877 7.545599937438965 2.988759994506836 C 8.460539817810059 2.356709957122803 9.438639640808105 1.81384003162384 10.45273971557617 1.375249981880188 C 12.5626802444458 0.4627000093460083 14.80399990081787 0 17.11441040039063 0 C 17.91242980957031 0 18.71505928039551 0.05674999952316284 19.5 0.1686699986457825 C 11.10330009460449 1.365890026092529 4.771359920501709 8.81659984588623 4.771359920501709 17.50008964538574 C 4.771359920501709 26.18331909179688 11.10330009460449 33.63414001464844 19.5 34.83132934570313 C 18.71401977539063 34.94338989257813 17.91139984130859 35 17.11441040039063 35 Z" stroke="none" fill="#033371"/>
      </g>
      <g id="Exclusion_4" data-name="Exclusion 4" transform="translate(80.005 34.754) rotate(120)" fill="none">
        <path d="M22.277,34.841a17.644,17.644,0,0,1-2.428-.168,17.423,17.423,0,0,0,0-34.5A17.644,17.644,0,0,1,22.277,0a17.339,17.339,0,0,1,9.74,2.975,17.471,17.471,0,0,1,6.312,7.664A17.4,17.4,0,0,1,36.722,27.16a17.471,17.471,0,0,1-7.664,6.311A17.311,17.311,0,0,1,22.277,34.841Zm-4.856,0a17.339,17.339,0,0,1-9.74-2.975A17.471,17.471,0,0,1,1.369,24.2,17.4,17.4,0,0,1,2.975,7.68,17.471,17.471,0,0,1,10.64,1.369,17.311,17.311,0,0,1,17.42,0a17.644,17.644,0,0,1,2.428.168,17.423,17.423,0,0,0,0,34.5A17.645,17.645,0,0,1,17.42,34.841Z" stroke="none"/>
        <path d="M 22.27682876586914 34.84054183959961 C 21.46457862854004 34.84054183959961 20.64759826660156 34.78406143188477 19.84859848022461 34.67264938354492 C 28.39540863037109 33.48089981079102 34.84053802490234 26.06421089172363 34.84053802490234 17.42037010192871 C 34.84053802490234 8.776611328125 28.39540863037109 1.359670877456665 19.84859848022461 0.1679009199142456 C 20.64858818054199 0.05635092034935951 21.4655590057373 9.197997883347853e-07 22.27682876586914 9.197997883347853e-07 C 24.62854766845703 9.197997883347853e-07 26.9099292755127 0.4605909287929535 29.05759811401367 1.368980884552002 C 30.08982849121094 1.805580973625183 31.08539772033691 2.345970869064331 32.01669692993164 2.975140810012817 C 32.93914794921875 3.598330974578857 33.80656814575195 4.314021110534668 34.59487915039063 5.102330684661865 C 35.3831787109375 5.890630722045898 36.09886932373047 6.758050918579102 36.7220573425293 7.680500984191895 C 37.35122680664063 8.611790657043457 37.89161682128906 9.60737133026123 38.32820892333984 10.63960075378418 C 39.23659896850586 12.78726100921631 39.69719696044922 15.06864070892334 39.69719696044922 17.42037010192871 C 39.69719696044922 19.77208137512207 39.23659896850586 22.0534610748291 38.32820892333984 24.20110130310059 C 37.89161682128906 25.23332023620605 37.35122680664063 26.22889137268066 36.7220573425293 27.16017150878906 C 36.098876953125 28.08260154724121 35.3831787109375 28.95001029968262 34.59487915039063 29.73831176757813 C 33.80654907226563 30.52662086486816 32.93912887573242 31.24230003356934 32.01669692993164 31.8654613494873 C 31.08541870117188 32.49460983276367 30.0898380279541 33.03499984741211 29.05759811401367 33.47159194946289 C 26.9099292755127 34.37995910644531 24.62855911254883 34.84054183959961 22.27682876586914 34.84054183959961 Z M 17.42036819458008 34.84054183959961 C 15.06863880157471 34.84054183959961 12.78725814819336 34.37995910644531 10.63959884643555 33.47159194946289 C 9.607358932495117 33.03499984741211 8.61176872253418 32.49460983276367 7.680498600006104 31.8654613494873 C 6.758068561553955 31.24230003356934 5.890648365020752 30.52662086486816 5.102328300476074 29.73831176757813 C 4.314018249511719 28.95001029968262 3.598328590393066 28.08260154724121 2.975148439407349 27.16017150878906 C 2.34596848487854 26.22889137268066 1.805578470230103 25.23332023620605 1.368978500366211 24.20110130310059 C 0.4605884850025177 22.0534610748291 -1.519775423730607e-06 19.77208137512207 -1.519775423730607e-06 17.42037010192871 C -1.519775423730607e-06 15.06864070892334 0.4605884850025177 12.78726100921631 1.368978500366211 10.63960075378418 C 1.805578470230103 9.60737133026123 2.34596848487854 8.611790657043457 2.975148439407349 7.680500984191895 C 3.59833836555481 6.758050918579102 4.314018249511719 5.890630722045898 5.102328300476074 5.102330684661865 C 5.890628337860107 4.314021110534668 6.758048534393311 3.598330974578857 7.680498600006104 2.975140810012817 C 8.611788749694824 2.345970869064331 9.607378005981445 1.805580973625183 10.63959884643555 1.368980884552002 C 12.78725814819336 0.4605909287929535 15.06864833831787 9.197997883347853e-07 17.42036819458008 9.197997883347853e-07 C 18.2326488494873 9.197997883347853e-07 19.04961776733398 0.05649092048406601 19.84859848022461 0.1679009199142456 C 11.30178833007813 1.359660863876343 4.856658458709717 8.776431083679199 4.856658458709717 17.42037010192871 C 4.856658458709717 26.06403160095215 11.30178833007813 33.48091125488281 19.84859848022461 34.67264938354492 C 19.04856872558594 34.7841911315918 18.23159790039063 34.84054183959961 17.42036819458008 34.84054183959961 Z" stroke="none" fill="#033371"/>
      </g>
      <g id="Exclusion_5" data-name="Exclusion 5" transform="translate(50.021 17.65) rotate(120)" fill="none">
        <path d="M22.277,34.841a17.644,17.644,0,0,1-2.428-.168,17.423,17.423,0,0,0,0-34.5A17.644,17.644,0,0,1,22.277,0a17.339,17.339,0,0,1,9.74,2.975,17.471,17.471,0,0,1,6.312,7.664A17.4,17.4,0,0,1,36.722,27.16a17.471,17.471,0,0,1-7.664,6.311A17.311,17.311,0,0,1,22.277,34.841Zm-4.856,0a17.339,17.339,0,0,1-9.74-2.975A17.471,17.471,0,0,1,1.369,24.2,17.4,17.4,0,0,1,2.975,7.68,17.471,17.471,0,0,1,10.64,1.369,17.311,17.311,0,0,1,17.42,0a17.644,17.644,0,0,1,2.428.168,17.423,17.423,0,0,0,0,34.5A17.645,17.645,0,0,1,17.42,34.841Z" stroke="none"/>
        <path d="M 22.27682876586914 34.84054183959961 C 21.46457862854004 34.84054183959961 20.64759826660156 34.78406143188477 19.84859848022461 34.67264938354492 C 28.39540863037109 33.48089981079102 34.84053802490234 26.06421089172363 34.84053802490234 17.42037010192871 C 34.84053802490234 8.776611328125 28.39540863037109 1.359670877456665 19.84859848022461 0.1679009199142456 C 20.64858818054199 0.05635092034935951 21.4655590057373 9.197997883347853e-07 22.27682876586914 9.197997883347853e-07 C 24.62854766845703 9.197997883347853e-07 26.9099292755127 0.4605909287929535 29.05759811401367 1.368980884552002 C 30.08982849121094 1.805580973625183 31.08539772033691 2.345970869064331 32.01669692993164 2.975140810012817 C 32.93914794921875 3.598330974578857 33.80656814575195 4.314021110534668 34.59487915039063 5.102330684661865 C 35.3831787109375 5.890630722045898 36.09886932373047 6.758050918579102 36.7220573425293 7.680500984191895 C 37.35122680664063 8.611790657043457 37.89161682128906 9.60737133026123 38.32820892333984 10.63960075378418 C 39.23659896850586 12.78726100921631 39.69719696044922 15.06864070892334 39.69719696044922 17.42037010192871 C 39.69719696044922 19.77208137512207 39.23659896850586 22.0534610748291 38.32820892333984 24.20110130310059 C 37.89161682128906 25.23332023620605 37.35122680664063 26.22889137268066 36.7220573425293 27.16017150878906 C 36.098876953125 28.08260154724121 35.3831787109375 28.95001029968262 34.59487915039063 29.73831176757813 C 33.80654907226563 30.52662086486816 32.93912887573242 31.24230003356934 32.01669692993164 31.8654613494873 C 31.08541870117188 32.49460983276367 30.0898380279541 33.03499984741211 29.05759811401367 33.47159194946289 C 26.9099292755127 34.37995910644531 24.62855911254883 34.84054183959961 22.27682876586914 34.84054183959961 Z M 17.42036819458008 34.84054183959961 C 15.06863880157471 34.84054183959961 12.78725814819336 34.37995910644531 10.63959884643555 33.47159194946289 C 9.607358932495117 33.03499984741211 8.61176872253418 32.49460983276367 7.680498600006104 31.8654613494873 C 6.758068561553955 31.24230003356934 5.890648365020752 30.52662086486816 5.102328300476074 29.73831176757813 C 4.314018249511719 28.95001029968262 3.598328590393066 28.08260154724121 2.975148439407349 27.16017150878906 C 2.34596848487854 26.22889137268066 1.805578470230103 25.23332023620605 1.368978500366211 24.20110130310059 C 0.4605884850025177 22.0534610748291 -1.519775423730607e-06 19.77208137512207 -1.519775423730607e-06 17.42037010192871 C -1.519775423730607e-06 15.06864070892334 0.4605884850025177 12.78726100921631 1.368978500366211 10.63960075378418 C 1.805578470230103 9.60737133026123 2.34596848487854 8.611790657043457 2.975148439407349 7.680500984191895 C 3.59833836555481 6.758050918579102 4.314018249511719 5.890630722045898 5.102328300476074 5.102330684661865 C 5.890628337860107 4.314021110534668 6.758048534393311 3.598330974578857 7.680498600006104 2.975140810012817 C 8.611788749694824 2.345970869064331 9.607378005981445 1.805580973625183 10.63959884643555 1.368980884552002 C 12.78725814819336 0.4605909287929535 15.06864833831787 9.197997883347853e-07 17.42036819458008 9.197997883347853e-07 C 18.2326488494873 9.197997883347853e-07 19.04961776733398 0.05649092048406601 19.84859848022461 0.1679009199142456 C 11.30178833007813 1.359660863876343 4.856658458709717 8.776431083679199 4.856658458709717 17.42037010192871 C 4.856658458709717 26.06403160095215 11.30178833007813 33.48091125488281 19.84859848022461 34.67264938354492 C 19.04856872558594 34.7841911315918 18.23159790039063 34.84054183959961 17.42036819458008 34.84054183959961 Z" stroke="none" fill="#033371"/>
      </g>
    </g>
  </g>
</svg>
